<?xml version="1.0" encoding="UTF-8"?>
<svg xmlns="http://www.w3.org/2000/svg" xmlns:xlink="http://www.w3.org/1999/xlink" width="52pt" height="52pt" viewBox="0 0 52 52" version="1.1">
<g id="surface1019375">
<path style=" stroke:none;fill-rule:nonzero;fill:rgb(100%,100%,100%);fill-opacity:1;" d="M 4.203125 46 C 4.203125 46 4.203125 43 4.203125 42.601562 C 4.203125 38.203125 10.796875 34.203125 18 32.796875 C 18 32.796875 20.203125 31.601562 19.601562 29.398438 C 17.398438 26.601562 16.796875 23.601562 16.796875 23.601562 C 16.398438 23.398438 15.796875 23 15.398438 22.601562 C 14.796875 21.796875 14 19.398438 14.203125 17.601562 C 14.398438 16 14.796875 16.601562 15 16.203125 C 13.398438 12.601562 14.203125 8 16 4.601562 C 19.796875 -2 27.796875 0 29 2.398438 C 36.601562 1 36.398438 13 35.203125 16 C 35.203125 16 35.796875 16.203125 35.796875 19 C 35.601562 22 33.203125 23.796875 33.203125 23.796875 C 33.203125 24.601562 32.203125 27 30.601562 29.203125 C 29.203125 32 32 32.601562 32 32.601562 C 39.203125 34 45.796875 38 45.796875 42.398438 C 45.796875 42.796875 45.796875 45.796875 45.796875 45.796875 C 45.796875 48.601562 35 51.601562 25 51.601562 C 15.203125 51.601562 4.203125 50.601562 4.203125 46 Z M 4.203125 46 "/>
</g>
</svg>
