<?xml version="1.0" standalone="no"?>
<!DOCTYPE svg PUBLIC "-//W3C//DTD SVG 20010904//EN"
 "http://www.w3.org/TR/2001/REC-SVG-20010904/DTD/svg10.dtd">
<svg version="1.0" xmlns="http://www.w3.org/2000/svg"
 width="407.000000pt" height="263.000000pt" viewBox="0 0 407.000000 263.000000"
 preserveAspectRatio="xMidYMid meet">
<metadata>
Created by potrace 1.16, written by Peter Selinger 2001-2019
</metadata>
<g transform="translate(0.000000,263.000000) scale(0.100000,-0.100000)"
fill="#000000" stroke="none">
<path d="M1500 2600 c-82 -3 -125 -8 -110 -12 14 -4 36 -8 50 -8 22 0 26 -5
28 -32 2 -18 8 -36 15 -41 7 -5 3 -6 -10 -2 -17 5 -21 3 -18 -7 8 -20 -180
-75 -315 -93 -63 -8 -191 -19 -285 -25 -194 -11 -258 -17 -370 -32 -199 -26
-351 -80 -391 -139 -10 -16 -22 -29 -26 -29 -5 0 -7 57 -6 128 1 70 3 102 5
72 3 -35 10 -58 19 -63 14 -8 13 -11 -2 -28 -16 -18 -16 -19 2 -19 27 0 52 18
38 28 -10 7 -11 53 -6 180 2 45 5 52 22 52 11 0 23 7 26 15 4 10 22 16 53 17
l46 1 -55 7 -55 7 55 2 c30 1 62 6 70 11 10 7 -26 10 -112 10 l-128 0 -2 -37
c-1 -21 -2 -147 -3 -280 l-1 -242 27 48 c83 144 279 209 794 261 268 27 432
55 535 91 l84 29 1068 0 1068 0 0 64 c0 63 0 64 -31 70 -38 7 -1885 4 -2079
-4z m-1433 -42 c-3 -8 -6 -5 -6 6 -1 11 2 17 5 13 3 -3 4 -12 1 -19z m1501 15
c-10 -2 -28 -2 -40 0 -13 2 -5 4 17 4 22 1 32 -1 23 -4z m-38 -43 c0 -5 -9
-10 -21 -10 -11 0 -17 5 -14 10 3 6 13 10 21 10 8 0 14 -4 14 -10z"/>
<path d="M3716 2602 c-13 -3 -16 -16 -16 -68 l0 -64 165 0 165 0 0 64 0 65
-149 3 c-81 2 -156 2 -165 0z"/>
<path d="M1428 2523 c7 -3 16 -2 19 1 4 3 -2 6 -13 5 -11 0 -14 -3 -6 -6z"/>
<path d="M1722 2245 c0 -16 2 -22 5 -12 2 9 2 23 0 30 -3 6 -5 -1 -5 -18z"/>
<path d="M2722 2245 c0 -16 2 -22 5 -12 2 9 2 23 0 30 -3 6 -5 -1 -5 -18z"/>
<path d="M3260 2246 c0 -14 5 -26 10 -26 6 0 10 9 10 19 0 11 -4 23 -10 26 -6
4 -10 -5 -10 -19z"/>
<path d="M70 2230 c0 -11 2 -20 4 -20 2 0 6 9 9 20 3 11 1 20 -4 20 -5 0 -9
-9 -9 -20z"/>
<path d="M740 2206 c0 -29 11 -38 30 -25 10 6 11 9 3 9 -7 0 -13 9 -13 20 0
11 -4 20 -10 20 -5 0 -10 -11 -10 -24z"/>
<path d="M1442 2200 c0 -19 2 -27 5 -17 2 9 2 25 0 35 -3 9 -5 1 -5 -18z"/>
<path d="M2315 2209 c-10 -30 -2 -32 12 -3 6 13 7 24 3 24 -5 0 -12 -9 -15
-21z"/>
<path d="M965 2190 c-3 -5 -1 -10 4 -10 6 0 11 5 11 10 0 6 -2 10 -4 10 -3 0
-8 -4 -11 -10z"/>
<path d="M1087 2178 c-12 -52 -19 -178 -10 -178 6 0 13 43 17 96 7 93 4 129
-7 82z"/>
<path d="M2678 2193 c7 -3 16 -2 19 1 4 3 -2 6 -13 5 -11 0 -14 -3 -6 -6z"/>
<path d="M1005 2179 c-4 -6 -5 -12 -2 -15 2 -3 7 2 10 11 7 17 1 20 -8 4z"/>
<path d="M1393 2150 c0 -25 2 -35 4 -22 2 12 2 32 0 45 -2 12 -4 2 -4 -23z"/>
<path d="M1780 2174 c0 -9 5 -14 12 -12 18 6 21 28 4 28 -9 0 -16 -7 -16 -16z"/>
<path d="M2891 2174 c0 -11 3 -14 6 -6 3 7 2 16 -1 19 -3 4 -6 -2 -5 -13z"/>
<path d="M3176 2182 c-3 -5 1 -9 9 -9 8 0 15 4 15 9 0 4 -4 8 -9 8 -6 0 -12
-4 -15 -8z"/>
<path d="M3251 2130 l1 -65 9 54 c6 36 6 58 -1 65 -7 7 -10 -11 -9 -54z"/>
<path d="M2145 2170 c-3 -5 -1 -10 4 -10 6 0 11 5 11 10 0 6 -2 10 -4 10 -3 0
-8 -4 -11 -10z"/>
<path d="M2831 2164 c0 -11 3 -14 6 -6 3 7 2 16 -1 19 -3 4 -6 -2 -5 -13z"/>
<path d="M3330 2165 c-6 -8 -10 -19 -8 -24 1 -6 8 1 15 14 13 28 11 31 -7 10z"/>
<path d="M1131 2139 c-14 -40 -14 -76 -1 -84 6 -4 10 10 10 35 0 23 5 50 10
61 6 11 7 19 1 19 -5 0 -14 -14 -20 -31z"/>
<path d="M1286 2155 c-3 -9 -5 -40 -4 -68 l1 -52 7 65 c7 70 6 80 -4 55z"/>
<path d="M1917 2164 c-4 -4 -7 -14 -7 -23 0 -11 3 -12 11 -4 6 6 10 16 7 23
-2 6 -7 8 -11 4z"/>
<path d="M2495 2159 c-4 -6 -5 -12 -2 -15 2 -3 7 2 10 11 7 17 1 20 -8 4z"/>
<path d="M3086 2155 c-3 -9 -5 -38 -5 -63 2 -46 2 -46 9 13 7 64 6 76 -4 50z"/>
<path d="M935 2114 c-16 -44 -19 -46 -31 -29 -9 12 -14 14 -14 6 0 -8 8 -19
17 -26 15 -11 19 -7 35 38 23 64 17 73 -7 11z"/>
<path d="M1441 2144 c0 -11 3 -14 6 -6 3 7 2 16 -1 19 -3 4 -6 -2 -5 -13z"/>
<path d="M1863 2120 c0 -25 2 -35 4 -22 2 12 2 32 0 45 -2 12 -4 2 -4 -23z"/>
<path d="M2581 2144 c0 -11 3 -14 6 -6 3 7 2 16 -1 19 -3 4 -6 -2 -5 -13z"/>
<path d="M2937 2153 c-4 -3 -6 -27 -6 -52 l2 -46 7 50 c8 53 7 59 -3 48z"/>
<path d="M3192 2135 c0 -16 2 -22 5 -12 2 9 2 23 0 30 -3 6 -5 -1 -5 -18z"/>
<path d="M881 2134 c0 -11 3 -14 6 -6 3 7 2 16 -1 19 -3 4 -6 -2 -5 -13z"/>
<path d="M2005 2140 c3 -5 8 -10 11 -10 2 0 4 5 4 10 0 6 -5 10 -11 10 -5 0
-7 -4 -4 -10z"/>
<path d="M2773 2105 c0 -27 2 -38 4 -22 2 15 2 37 0 50 -2 12 -4 0 -4 -28z"/>
<path d="M1773 2080 c0 -30 2 -43 4 -27 2 15 2 39 0 55 -2 15 -4 2 -4 -28z"/>
<path d="M2823 2085 c0 -27 2 -38 4 -22 2 15 2 37 0 50 -2 12 -4 0 -4 -28z"/>
<path d="M3405 2110 c-3 -5 1 -10 9 -10 9 0 16 5 16 10 0 6 -4 10 -9 10 -6 0
-13 -4 -16 -10z"/>
<path d="M1910 2099 c0 -5 5 -7 10 -4 6 3 10 8 10 11 0 2 -4 4 -10 4 -5 0 -10
-5 -10 -11z"/>
<path d="M1958 2103 c6 -2 18 -2 25 0 6 3 1 5 -13 5 -14 0 -19 -2 -12 -5z"/>
<path d="M2881 2058 c1 -55 5 -50 11 15 2 20 0 37 -4 37 -4 0 -7 -24 -7 -52z"/>
<path d="M1428 2055 c-2 -25 0 -45 4 -45 5 0 8 20 8 45 0 25 -2 45 -4 45 -2 0
-6 -20 -8 -45z"/>
<path d="M821 2064 c0 -11 3 -14 6 -6 3 7 2 16 -1 19 -3 4 -6 -2 -5 -13z"/>
<path d="M1042 2055 c0 -16 2 -22 5 -12 2 9 2 23 0 30 -3 6 -5 -1 -5 -18z"/>
<path d="M1381 2064 c0 -11 3 -14 6 -6 3 7 2 16 -1 19 -3 4 -6 -2 -5 -13z"/>
<path d="M2188 2050 c-3 -16 -1 -30 4 -30 4 0 8 14 8 30 0 17 -2 30 -4 30 -2
0 -6 -13 -8 -30z"/>
<path d="M3180 2055 c0 -17 -8 -29 -25 -37 -14 -6 -25 -15 -25 -20 0 -5 9 -4
20 2 11 6 25 8 30 5 6 -4 10 10 10 34 0 23 -2 41 -5 41 -3 0 -5 -11 -5 -25z"/>
<path d="M2622 2040 c0 -19 2 -27 5 -17 2 9 2 25 0 35 -3 9 -5 1 -5 -18z"/>
<path d="M3321 2044 c0 -11 3 -14 6 -6 3 7 2 16 -1 19 -3 4 -6 -2 -5 -13z"/>
<path d="M2096 2034 c-4 -10 -1 -14 6 -12 15 5 23 28 10 28 -5 0 -13 -7 -16
-16z"/>
<path d="M3240 2031 c0 -12 5 -21 10 -21 6 0 10 6 10 14 0 8 -4 18 -10 21 -5
3 -10 -3 -10 -14z"/>
<path d="M1360 2020 l-23 -20 26 0 c20 0 27 5 27 20 0 11 -2 20 -3 20 -2 0
-14 -9 -27 -20z"/>
<path d="M1852 2020 c0 -14 2 -19 5 -12 2 6 2 18 0 25 -3 6 -5 1 -5 -13z"/>
<path d="M900 2015 c0 -8 2 -15 4 -15 2 0 6 7 10 15 3 8 1 15 -4 15 -6 0 -10
-7 -10 -15z"/>
<path d="M1965 2013 l-30 -14 30 6 c31 7 41 12 34 19 -2 2 -17 -3 -34 -11z"/>
<path d="M3370 2010 c-8 -5 -10 -10 -5 -10 6 0 17 5 25 10 8 5 11 10 5 10 -5
0 -17 -5 -25 -10z"/>
<path d="M886 1975 c-3 -9 -6 -24 -5 -33 0 -9 5 -4 10 12 9 32 6 48 -5 21z"/>
<path d="M3980 737 c-162 -182 -400 -293 -787 -366 -87 -17 -203 -35 -258 -40
-55 -6 -145 -15 -200 -22 -239 -26 -1052 -26 -1510 1 -99 6 -349 13 -555 17
-403 6 -502 0 -591 -38 l-50 -22 3 -56 3 -56 45 -3 c25 -2 200 0 390 4 356 8
365 10 150 38 -122 16 -114 18 70 19 74 0 111 2 83 4 -29 2 -53 8 -53 14 0 5
-11 9 -25 9 -14 0 -25 5 -25 10 0 6 -22 10 -50 10 -31 0 -50 4 -50 11 0 9 23
10 78 7 42 -3 65 -3 50 -1 -16 2 -28 9 -28 15 0 12 361 6 750 -12 957 -43
1534 -37 1840 22 58 11 119 22 135 25 l31 5 -2 -49 c-2 -44 -4 -49 -30 -54
-25 -6 -23 -7 16 -9 25 -2 35 -5 22 -7 -37 -7 -14 -23 36 -24 38 -1 42 -2 22
-9 -14 -4 -50 -9 -80 -11 -80 -4 215 -16 428 -18 139 -1 184 2 187 12 3 7 4
150 3 318 l-3 306 -45 -50z m-220 -297 c-8 -6 -22 -10 -30 -10 -8 0 -4 6 10
13 27 15 44 12 20 -3z m-165 -67 c-11 -3 -24 -9 -29 -14 -13 -12 -26 -12 -26
0 0 11 24 19 55 19 l20 0 -20 -5z m-76 -27 c-2 -2 -20 -6 -39 -10 -25 -4 -31
-3 -20 4 14 9 69 15 59 6z m-3041 -43 c-10 -2 -28 -2 -40 0 -13 2 -5 4 17 4
22 1 32 -1 23 -4z m155 0 c-13 -2 -33 -2 -45 0 -13 2 -3 4 22 4 25 0 35 -2 23
-4z m2868 -56 c-8 -8 -14 -7 -23 2 -10 11 -10 13 0 7 6 -4 12 -2 12 4 0 6 5 8
11 4 8 -4 8 -9 0 -17z m-2873 -74 c-26 -2 -71 -2 -100 0 -29 2 -8 3 47 3 55 0
79 -1 53 -3z"/>
<path d="M823 273 c9 -2 25 -2 35 0 9 3 1 5 -18 5 -19 0 -27 -2 -17 -5z"/>
<path d="M3290 190 c0 -5 15 -10 34 -10 19 0 38 5 41 10 4 6 -10 10 -34 10
-23 0 -41 -4 -41 -10z"/>
</g>
</svg>
