<?xml version="1.0" standalone="no"?>
<!DOCTYPE svg PUBLIC "-//W3C//DTD SVG 20010904//EN"
 "http://www.w3.org/TR/2001/REC-SVG-20010904/DTD/svg10.dtd">
<svg version="1.0" xmlns="http://www.w3.org/2000/svg"
 viewBox="0 0 1040.000000 720.000000"
 preserveAspectRatio="xMidYMid meet">
<metadata>
Created by potrace 1.16, written by Peter Selinger 2001-2019
</metadata>
<g transform="translate(0.000000,720.000000) scale(0.100000,-0.100000)"
fill="#000000" stroke="none">
<path d="M5596 5870 c-27 -22 -55 -44 -63 -49 -10 -5 -16 -36 -20 -100 -3 -50
-10 -94 -15 -97 -12 -7 -38 59 -38 96 0 39 20 77 59 114 17 17 31 34 31 39 0
19 -77 -38 -109 -80 -30 -41 -34 -53 -35 -113 0 -68 11 -97 52 -138 75 -74
193 -80 279 -15 33 24 59 61 50 69 -3 3 -21 -6 -42 -20 -40 -28 -102 -44 -113
-30 -4 5 -6 45 -4 90 l3 81 48 -5 c43 -4 50 -1 70 24 23 30 16 44 -24 44 -15
0 -11 8 25 45 24 24 42 46 39 48 -2 2 -29 8 -59 14 -30 6 -62 13 -70 17 -10 4
-33 -9 -64 -34z"/>
<path d="M5123 5872 c-22 -18 -33 -37 -33 -54 0 -14 -7 -31 -15 -38 -14 -12
-14 -15 0 -30 18 -20 22 -179 4 -197 -8 -8 0 -18 29 -38 l41 -27 35 27 c40 30
40 45 1 37 l-26 -4 3 98 c2 80 6 99 18 99 8 0 16 10 18 23 3 17 -2 22 -17 22
-16 0 -21 6 -21 24 0 19 6 25 27 28 31 3 44 35 21 49 -24 16 -53 9 -85 -19z"/>
<path d="M4345 5824 c-16 -21 -35 -45 -42 -52 -17 -18 -16 -31 2 -38 12 -5 15
-26 15 -99 0 -58 -4 -96 -11 -101 -7 -4 5 -16 27 -29 40 -22 60 -20 91 11 18
18 16 22 -9 26 -21 3 -24 10 -30 93 -4 49 -4 93 -2 97 3 4 16 8 30 8 34 0 29
32 -6 40 -20 5 -26 13 -30 45 l-5 39 -30 -40z"/>
<path d="M3531 5819 c-25 -26 -30 -39 -26 -60 4 -19 1 -28 -9 -32 -21 -8 -20
-34 1 -46 15 -8 18 -25 18 -108 l0 -99 37 -18 c37 -17 38 -17 60 3 12 12 25
21 30 21 4 0 8 5 8 10 0 6 -11 10 -24 10 -14 0 -27 3 -29 8 -3 4 -8 47 -12 95
-7 85 -7 88 14 94 23 6 26 37 3 39 -6 1 -16 2 -22 3 -5 0 -10 12 -10 26 0 20
5 25 24 25 16 0 27 7 31 21 8 25 6 27 -32 35 -26 5 -36 1 -62 -27z"/>
<path d="M6660 5833 c-8 -3 -25 -9 -38 -16 -17 -8 -25 -8 -34 1 -7 7 -18 12
-25 12 -10 0 -10 -5 -1 -25 13 -29 -5 -292 -22 -309 -14 -14 -13 -26 2 -26 6
0 22 -10 35 -22 22 -21 26 -21 50 -8 34 19 39 36 13 43 -24 6 -25 38 -6 201
10 82 17 112 31 122 20 15 17 33 -5 27z"/>
<path d="M6735 5798 c9 -30 8 -69 -6 -201 -7 -59 -16 -110 -20 -113 -16 -9
-10 -21 26 -48 35 -27 36 -27 65 -9 35 20 37 29 10 36 -24 6 -24 20 -6 191 11
104 15 120 35 136 33 24 10 36 -31 16 -28 -14 -33 -14 -48 -1 -24 21 -33 19
-25 -7z"/>
<path d="M4878 5776 l-48 -21 0 -81 c0 -45 -3 -95 -6 -112 -6 -28 -3 -32 22
-38 16 -3 40 -13 53 -21 21 -14 28 -13 77 11 l54 27 0 109 0 108 -32 8 c-18 3
-42 12 -53 19 -17 10 -28 9 -67 -9z"/>
<path d="M4533 5766 l-43 -20 0 -96 c0 -52 -3 -104 -6 -116 -5 -18 1 -22 49
-33 54 -12 57 -11 96 16 22 15 40 31 41 36 0 12 -28 8 -32 -4 -3 -8 -16 -10
-41 -5 -33 6 -37 10 -37 36 0 24 10 36 55 67 29 21 56 43 59 49 5 14 -72 95
-88 92 -6 0 -30 -10 -53 -22z"/>
<path d="M3175 5723 c-35 -52 -36 -57 -20 -69 18 -14 39 -149 29 -189 -4 -17
2 -25 36 -40 40 -18 40 -18 65 5 26 24 37 62 12 42 -23 -19 -35 2 -46 81 -15
104 -15 104 14 111 38 10 34 46 -5 46 -28 0 -30 3 -30 35 0 19 -4 35 -9 35 -4
0 -25 -26 -46 -57z"/>
<path d="M4116 5772 c-3 -6 -20 -13 -36 -17 -35 -8 -34 -5 -13 -50 16 -34 16
-36 -5 -74 -29 -52 -29 -102 2 -138 l24 -27 38 33 37 33 20 -26 c23 -32 37
-33 65 -3 25 26 29 42 8 34 -10 -4 -15 7 -20 40 -9 65 -7 138 3 165 8 22 7 24
-28 24 -20 0 -48 3 -62 8 -16 4 -29 4 -33 -2z"/>
<path d="M5848 5759 c-29 -22 -37 -41 -15 -38 27 3 34 -3 62 -55 29 -54 29
-55 12 -91 -18 -37 -18 -37 -63 -19 -8 4 -34 -34 -34 -50 0 -8 59 -27 68 -23
4 3 17 24 28 46 10 23 22 41 25 41 3 0 20 -22 37 -50 17 -27 37 -50 45 -50 8
0 27 11 43 25 26 22 27 25 9 25 -11 0 -26 10 -34 21 -54 88 -62 120 -38 153
11 15 18 16 34 7 18 -9 23 -7 37 14 15 23 15 25 -9 41 -32 21 -48 14 -69 -30
-19 -40 -32 -45 -41 -17 -8 28 -44 71 -58 71 -7 0 -24 -10 -39 -21z"/>
<path d="M3893 5741 l-33 -27 0 -113 c0 -81 3 -112 13 -115 6 -2 27 -8 46 -14
30 -10 37 -8 67 15 42 31 43 44 4 37 -49 -10 -60 7 -60 97 0 72 9 96 25 69 11
-18 31 -11 43 15 11 23 9 26 -28 45 -21 11 -41 20 -42 20 -2 -1 -18 -13 -35
-29z"/>
<path d="M6170 5736 c-35 -23 -35 -24 -40 -112 -4 -49 -10 -97 -14 -106 -6
-14 1 -22 38 -40 l46 -22 37 21 c42 24 58 49 24 38 -11 -3 -30 -3 -41 0 -18 6
-20 15 -20 91 0 66 3 84 14 84 8 0 18 -4 21 -10 10 -16 23 -12 36 12 10 19 8
25 -17 45 -35 28 -40 28 -84 -1z"/>
<path d="M3691 5729 c-15 -14 -19 -25 -13 -32 6 -7 13 -50 16 -97 12 -142 36
-175 90 -120 29 28 29 30 9 30 -19 0 -22 7 -28 75 -4 41 -4 90 -1 108 5 29 3
35 -19 45 -32 15 -27 16 -54 -9z"/>
<path d="M6383 5728 c-33 -13 -53 -27 -54 -37 -3 -58 -17 -178 -22 -191 -5
-11 6 -21 41 -36 l48 -21 47 24 c26 13 47 30 47 39 0 15 -2 15 -25 0 -24 -16
-27 -16 -55 1 -50 29 -35 58 50 101 64 33 65 35 24 89 -20 26 -39 49 -43 50
-3 1 -30 -8 -58 -19z"/>
<path d="M3348 5698 c-12 -15 -14 -25 -8 -34 6 -6 14 -52 19 -102 7 -83 28
-142 48 -142 10 0 63 52 63 62 0 5 -8 8 -17 6 -14 -2 -19 8 -26 57 -4 33 -6
81 -4 106 3 37 0 49 -14 58 -27 16 -42 14 -61 -11z"/>
<path d="M2492 5698 c-62 -10 -64 -11 -85 -54 -11 -24 -24 -44 -29 -44 -20 0
-18 -69 5 -134 38 -105 19 -134 -33 -51 -25 41 -28 120 -6 163 24 47 19 61
-10 27 -77 -89 -72 -211 12 -284 45 -40 73 -51 130 -51 82 0 156 46 195 122
23 45 23 48 4 48 -8 0 -15 -4 -15 -9 0 -13 -51 -61 -82 -77 -23 -12 -29 -12
-32 -2 -3 7 -25 69 -50 138 -25 70 -46 129 -46 133 0 4 15 7 33 7 51 0 74 10
86 36 6 14 11 29 11 34 0 11 -1 11 -88 -2z"/>
<path d="M3049 5668 c-16 -22 -26 -21 -61 4 -14 10 -20 8 -38 -15 -23 -29 -25
-43 -6 -39 19 3 43 -163 26 -183 -15 -18 -16 -17 37 -37 l41 -16 31 32 c35 36
40 52 11 34 -29 -18 -38 -3 -51 85 -13 90 -4 114 31 82 20 -18 21 -18 35 1 19
25 19 38 -3 57 -24 22 -34 21 -53 -5z"/>
<path d="M6960 5674 c-25 -9 -48 -19 -52 -23 -4 -3 -12 -46 -17 -95 -6 -48
-15 -94 -21 -102 -9 -10 -1 -18 41 -39 51 -26 52 -27 90 -9 22 9 44 23 51 31
9 11 4 13 -28 8 -50 -8 -80 11 -71 46 5 17 25 33 68 54 33 17 63 34 66 38 2 4
-6 22 -19 40 -14 18 -27 40 -31 50 -8 21 -18 21 -77 1z"/>
<path d="M7145 5647 c-11 -7 -22 -13 -25 -15 -3 -2 3 -9 13 -16 16 -13 16 -18
1 -97 -9 -46 -20 -90 -26 -97 -8 -9 -5 -19 12 -37 22 -23 24 -23 52 -9 21 11
28 20 23 32 -3 9 -1 49 6 89 9 57 17 76 34 87 39 26 47 2 30 -88 -19 -98 -19
-130 0 -146 12 -10 22 -9 50 4 36 18 46 36 19 36 -13 0 -14 9 -9 58 9 80 23
128 40 142 8 7 12 17 9 22 -4 6 -9 6 -14 -2 -6 -9 -13 -7 -29 9 -26 26 -31 26
-73 1 l-33 -19 -14 29 c-13 32 -33 37 -66 17z"/>
<path d="M2765 5625 c-16 -13 -36 -24 -42 -25 -17 0 -16 -31 1 -123 8 -41 12
-84 10 -95 -5 -17 1 -20 52 -26 l57 -6 39 41 c39 41 46 68 9 35 -12 -11 -31
-16 -53 -14 -27 2 -34 8 -36 28 -2 20 10 38 50 78 l53 53 -45 39 c-25 22 -49
40 -55 40 -5 0 -23 -11 -40 -25z"/>
<path d="M7485 5576 c-37 -20 -40 -27 -60 -103 -11 -44 -27 -88 -34 -97 -16
-19 -18 -17 39 -55 43 -29 44 -29 78 -13 l34 17 38 -43 c39 -43 68 -52 128
-36 30 9 28 28 -3 22 -17 -4 -31 2 -46 18 -20 21 -21 27 -10 48 11 20 23 24
79 29 36 4 70 11 74 15 9 9 -8 100 -21 114 -9 9 -106 17 -117 9 -5 -3 -26 -40
-48 -81 -21 -41 -41 -78 -45 -82 -7 -8 -59 3 -84 18 -17 10 -17 14 -2 80 25
104 23 99 43 80 22 -20 31 -20 56 -1 19 15 19 16 -14 50 -19 19 -36 35 -39 34
-4 -1 -24 -11 -46 -23z"/>
<path d="M5178 4813 c-25 -15 -27 -23 -30 -93 l-3 -77 40 -12 c34 -10 46 -9
73 4 32 16 32 17 32 94 l0 77 -33 12 c-42 15 -46 15 -79 -5z"/>
<path d="M4410 3638 c-31 -17 -70 -74 -69 -102 0 -14 2 -16 6 -6 13 41 29 60
56 70 43 15 84 12 112 -6 21 -14 25 -24 25 -70 l0 -54 -54 0 c-58 0 -86 -7
-86 -21 0 -5 32 -9 70 -9 l70 0 0 -33 c0 -41 21 -72 43 -64 13 5 15 13 9 39
-4 18 -7 81 -7 140 0 63 -4 103 -9 98 -5 -5 -20 -3 -36 5 -42 22 -101 28 -130
13z"/>
<path d="M5300 3607 c0 -9 12 -25 27 -37 26 -20 27 -23 10 -34 -14 -11 -17
-29 -17 -93 l0 -80 40 -13 c31 -10 43 -11 52 -2 7 7 20 12 30 12 16 0 18 10
18 83 l-1 82 -71 45 c-88 55 -88 55 -88 37z"/>
<path d="M5660 3607 c0 -9 12 -25 27 -37 25 -20 26 -23 11 -34 -12 -9 -17 -32
-20 -94 -3 -73 -1 -82 15 -82 9 0 26 -6 37 -12 16 -10 24 -10 40 0 11 6 27 12
35 12 12 0 15 15 15 83 l-1 82 -71 45 c-88 55 -88 55 -88 37z"/>
<path d="M4669 3579 c-8 -16 -8 -28 0 -46 6 -13 11 -56 11 -96 l0 -72 40 -13
c29 -9 46 -9 60 -2 13 7 27 7 44 -1 20 -9 32 -8 60 5 l36 17 0 73 c0 80 -15
114 -45 102 -14 -5 -16 -9 -7 -18 17 -17 16 -172 0 -164 -7 3 -21 9 -30 12
-15 5 -18 19 -18 73 0 73 -16 109 -44 98 -17 -7 -22 -27 -6 -27 6 0 10 -33 10
-80 0 -44 -2 -80 -5 -80 -2 0 -16 5 -30 12 -23 10 -25 16 -25 82 -1 47 -6 78
-15 90 -8 11 -13 28 -9 38 8 25 -13 23 -27 -3z"/>
<path d="M6108 3532 c-25 -15 -27 -22 -30 -92 l-3 -75 34 -12 c27 -9 43 -9 73
0 l38 12 0 81 0 82 -31 11 c-40 14 -48 13 -81 -7z"/>
</g>
</svg>
